<svg width="1081" height="165" viewBox="0 0 1081 165" fill="none" xmlns="http://www.w3.org/2000/svg">
<path d="M56.99 2.46C73.8567 2.46 88.6533 5.75666 101.38 12.35C114.26 18.9433 124.15 28.3733 131.05 40.64C138.103 52.7533 141.63 66.86 141.63 82.96C141.63 99.06 138.103 113.167 131.05 125.28C124.15 137.24 114.26 146.517 101.38 153.11C88.6533 159.703 73.8567 163 56.99 163H0.870001V2.46H56.99ZM55.84 135.63C72.7067 135.63 85.74 131.03 94.94 121.83C104.14 112.63 108.74 99.6733 108.74 82.96C108.74 66.2467 104.14 53.2133 94.94 43.86C85.74 34.3533 72.7067 29.6 55.84 29.6H33.07V135.63H55.84ZM197.933 28.45V68.7H251.983V94.23H197.933V136.78H258.883V163H165.733V2.22999H258.883V28.45H197.933ZM343.575 164.61C332.382 164.61 322.262 162.693 313.215 158.86C304.322 155.027 297.269 149.507 292.055 142.3C286.842 135.093 284.159 126.583 284.005 116.77H318.505C318.965 123.363 321.265 128.577 325.405 132.41C329.699 136.243 335.525 138.16 342.885 138.16C350.399 138.16 356.302 136.397 360.595 132.87C364.889 129.19 367.035 124.437 367.035 118.61C367.035 113.857 365.579 109.947 362.665 106.88C359.752 103.813 356.072 101.437 351.625 99.75C347.332 97.91 341.352 95.9167 333.685 93.77C323.259 90.7033 314.749 87.7133 308.155 84.8C301.715 81.7333 296.119 77.21 291.365 71.23C286.765 65.0967 284.465 56.97 284.465 46.85C284.465 37.3433 286.842 29.0633 291.595 22.01C296.349 14.9567 303.019 9.58999 311.605 5.90999C320.192 2.07666 330.005 0.159999 341.045 0.159999C357.605 0.159999 371.022 4.22333 381.295 12.35C391.722 20.3233 397.472 31.5167 398.545 45.93H363.125C362.819 40.41 360.442 35.8867 355.995 32.36C351.702 28.68 345.952 26.84 338.745 26.84C332.459 26.84 327.399 28.45 323.565 31.67C319.885 34.89 318.045 39.5667 318.045 45.7C318.045 49.9933 319.425 53.5967 322.185 56.51C325.099 59.27 328.625 61.57 332.765 63.41C337.059 65.0967 343.039 67.09 350.705 69.39C361.132 72.4567 369.642 75.5233 376.235 78.59C382.829 81.6567 388.502 86.2567 393.255 92.39C398.009 98.5233 400.385 106.573 400.385 116.54C400.385 125.127 398.162 133.1 393.715 140.46C389.269 147.82 382.752 153.723 374.165 158.17C365.579 162.463 355.382 164.61 343.575 164.61ZM460.502 2.46V163H428.302V2.46H460.502ZM604.095 50.76C600.415 44.0133 595.355 38.8767 588.915 35.35C582.475 31.8233 574.962 30.06 566.375 30.06C556.869 30.06 548.435 32.2067 541.075 36.5C533.715 40.7933 527.965 46.9267 523.825 54.9C519.685 62.8733 517.615 72.0733 517.615 82.5C517.615 93.2333 519.685 102.587 523.825 110.56C528.119 118.533 534.022 124.667 541.535 128.96C549.049 133.253 557.789 135.4 567.755 135.4C580.022 135.4 590.065 132.18 597.885 125.74C605.705 119.147 610.842 110.023 613.295 98.37H558.095V73.76H645.035V101.82C642.889 113.013 638.289 123.363 631.235 132.87C624.182 142.377 615.059 150.043 603.865 155.87C592.825 161.543 580.405 164.38 566.605 164.38C551.119 164.38 537.089 160.93 524.515 154.03C512.095 146.977 502.282 137.24 495.075 124.82C488.022 112.4 484.495 98.2933 484.495 82.5C484.495 66.7067 488.022 52.6 495.075 40.18C502.282 27.6067 512.095 17.87 524.515 10.97C537.089 3.91666 551.042 0.389996 566.375 0.389996C584.469 0.389996 600.185 4.83666 613.525 13.73C626.865 22.47 636.065 34.8133 641.125 50.76H604.095ZM806.168 163H773.968L701.058 52.83V163H668.858V2.22999H701.058L773.968 112.63V2.22999H806.168V163ZM870.189 28.45V68.7H924.239V94.23H870.189V136.78H931.139V163H837.989V2.22999H931.139V28.45H870.189ZM1043.2 163L1007.78 100.44H992.601V163H960.401V2.46H1020.66C1033.08 2.46 1043.66 4.68333 1052.4 9.12999C1061.14 13.4233 1067.66 19.3267 1071.95 26.84C1076.4 34.2 1078.62 42.48 1078.62 51.68C1078.62 62.26 1075.55 71.8433 1069.42 80.43C1063.29 88.8633 1054.16 94.69 1042.05 97.91L1080.46 163H1043.2ZM992.601 76.29H1019.51C1028.25 76.29 1034.77 74.22 1039.06 70.08C1043.35 65.7867 1045.5 59.8833 1045.5 52.37C1045.5 45.01 1043.35 39.3367 1039.06 35.35C1034.77 31.21 1028.25 29.14 1019.51 29.14H992.601V76.29Z" fill="#313131"/>
</svg>
