<svg width="952" height="176" viewBox="0 0 952 176" fill="none" xmlns="http://www.w3.org/2000/svg">
<path d="M39.4141 173H7.42188L7.53906 160.461H39.4141C49.6484 160.461 58.3594 158.312 65.5469 154.016C72.7344 149.719 78.2031 143.43 81.9531 135.148C85.7812 126.867 87.6953 116.789 87.6953 104.914V70.2266C87.6953 61.1641 86.6016 53.1953 84.4141 46.3203C82.3047 39.3672 79.1797 33.5859 75.0391 28.9766C70.9766 24.2891 66.0156 20.7734 60.1562 18.4297C54.2969 16.0859 47.6953 14.9141 40.3516 14.9141H6.83594V2.375H40.3516C49.4141 2.375 57.6562 3.85938 65.0781 6.82812C72.5 9.79687 78.8672 14.1719 84.1797 19.9531C89.5703 25.7344 93.7109 32.8438 96.6016 41.2812C99.4922 49.7188 100.938 59.4453 100.938 70.4609V104.914C100.938 115.852 99.4922 125.578 96.6016 134.094C93.7109 142.609 89.5703 149.758 84.1797 155.539C78.7891 161.242 72.3047 165.578 64.7266 168.547C57.1484 171.516 48.7109 173 39.4141 173ZM13.6328 2.375V173H0.273438V2.375H13.6328ZM226.562 160.461V173H146.875V160.461H226.562ZM150.508 2.375V173H137.148V2.375H150.508ZM216.602 78.7812V91.3203H146.875V78.7812H216.602ZM225.977 2.375V14.9141H146.875V2.375H225.977ZM336.836 130.93C336.836 126.242 336.211 122.102 334.961 118.508C333.711 114.914 331.641 111.672 328.75 108.781C325.859 105.812 321.953 103.078 317.031 100.578C312.109 98 305.977 95.4609 298.633 92.9609C291.445 90.5391 284.961 87.8828 279.18 84.9922C273.477 82.1016 268.555 78.7812 264.414 75.0312C260.352 71.2812 257.227 66.9062 255.039 61.9062C252.93 56.8281 251.875 50.9297 251.875 44.2109C251.875 37.6484 253.047 31.6719 255.391 26.2812C257.734 20.8125 261.055 16.125 265.352 12.2188C269.727 8.3125 274.844 5.30469 280.703 3.19531C286.562 1.08594 293.047 0.03125 300.156 0.03125C310.312 0.03125 319.062 2.33594 326.406 6.94531C333.828 11.4766 339.492 17.6094 343.398 25.3438C347.383 33 349.375 41.5547 349.375 51.0078H336.133C336.133 43.5859 334.727 36.9844 331.914 31.2031C329.18 25.4219 325.117 20.8906 319.727 17.6094C314.336 14.25 307.812 12.5703 300.156 12.5703C292.5 12.5703 286.055 14.0156 280.82 16.9062C275.664 19.7188 271.797 23.5078 269.219 28.2734C266.641 32.9609 265.352 38.1562 265.352 43.8594C265.352 47.9219 265.977 51.6719 267.227 55.1094C268.555 58.5469 270.664 61.7109 273.555 64.6016C276.523 67.4922 280.391 70.2266 285.156 72.8047C290 75.3047 295.898 77.6875 302.852 79.9531C310.586 82.375 317.383 85.1094 323.242 88.1562C329.18 91.2031 334.141 94.7188 338.125 98.7031C342.188 102.688 345.234 107.297 347.266 112.531C349.375 117.766 350.43 123.82 350.43 130.695C350.43 137.648 349.219 143.898 346.797 149.445C344.375 154.914 340.938 159.602 336.484 163.508C332.031 167.336 326.797 170.266 320.781 172.297C314.766 174.328 308.164 175.344 300.977 175.344C294.57 175.344 288.203 174.367 281.875 172.414C275.547 170.461 269.766 167.414 264.531 163.273C259.297 159.133 255.117 153.82 251.992 147.336C248.867 140.852 247.305 133.117 247.305 124.133H260.781C260.781 131.242 261.953 137.297 264.297 142.297C266.641 147.219 269.727 151.203 273.555 154.25C277.461 157.219 281.797 159.406 286.562 160.812C291.328 162.141 296.133 162.805 300.977 162.805C308.32 162.805 314.648 161.477 319.961 158.82C325.352 156.164 329.492 152.453 332.383 147.688C335.352 142.922 336.836 137.336 336.836 130.93ZM396.719 2.375V173H383.242V2.375H396.719ZM543.32 91.7891V153.195C541.68 155.461 538.867 158.352 534.883 161.867C530.898 165.383 525.508 168.547 518.711 171.359C511.992 174.094 503.555 175.461 493.398 175.461C484.883 175.461 477.148 173.977 470.195 171.008C463.242 168.039 457.227 163.703 452.148 158C447.148 152.219 443.281 145.07 440.547 136.555C437.812 127.961 436.445 118 436.445 106.672V67.4141C436.445 56.3203 437.656 46.5937 440.078 38.2344C442.578 29.875 446.172 22.8438 450.859 17.1406C455.625 11.4375 461.406 7.17969 468.203 4.36719C475 1.47656 482.734 0.03125 491.406 0.03125C502.109 0.03125 511.172 2.02344 518.594 6.00781C526.016 9.91406 531.797 15.6172 535.938 23.1172C540.156 30.6172 542.617 39.7188 543.32 50.4219H529.844C529.062 42.5313 527.227 35.7734 524.336 30.1484C521.523 24.5234 517.422 20.1875 512.031 17.1406C506.719 14.0938 499.844 12.5703 491.406 12.5703C484.531 12.5703 478.477 13.7422 473.242 16.0859C468.086 18.4297 463.75 21.9063 460.234 26.5156C456.797 31.125 454.219 36.8281 452.5 43.625C450.781 50.4219 449.922 58.2734 449.922 67.1797V106.672C449.922 115.891 450.898 124.016 452.852 131.047C454.883 138 457.773 143.859 461.523 148.625C465.352 153.312 469.922 156.867 475.234 159.289C480.547 161.711 486.602 162.922 493.398 162.922C500.586 162.922 506.641 162.023 511.562 160.227C516.484 158.43 520.43 156.398 523.398 154.133C526.445 151.867 528.633 150.031 529.961 148.625V104.211H492.461V91.7891H543.32ZM689.336 2.375V173H675.859L595.469 27.5703V173H581.992V2.375H595.469L675.977 147.805V2.375H689.336ZM819.531 160.461V173H739.844V160.461H819.531ZM743.477 2.375V173H730.117V2.375H743.477ZM809.57 78.7812V91.3203H739.844V78.7812H809.57ZM818.945 2.375V14.9141H739.844V2.375H818.945ZM849.414 2.375H896.172C906.172 2.375 914.805 4.32813 922.07 8.23438C929.414 12.0625 935.078 17.7266 939.062 25.2266C943.047 32.6484 945.039 41.7891 945.039 52.6484C945.039 60.6953 943.594 68 940.703 74.5625C937.891 81.125 934.023 86.5938 929.102 90.9688C924.18 95.3438 918.359 98.3516 911.641 99.9922L907.305 101.984H858.555L858.32 89.4453H898.398C905.82 89.4453 911.992 87.7266 916.914 84.2891C921.836 80.8516 925.508 76.3203 927.93 70.6953C930.43 65.0703 931.68 59.0547 931.68 52.6484C931.68 44.9141 930.312 38.2344 927.578 32.6094C924.922 26.9062 920.938 22.5312 915.625 19.4844C910.391 16.4375 903.906 14.9141 896.172 14.9141H862.773V173H849.414V2.375ZM936.953 173L900.273 96.7109L914.57 96.5938L951.133 171.477V173H936.953Z" fill="#313131"/>
</svg>
